<svg width="20" height="21" viewBox="0 0 20 21" fill="none" xmlns="http://www.w3.org/2000/svg">
<path fill-rule="evenodd" clip-rule="evenodd" d="M7.91699 10.9613C10.2125 10.9613 12.0525 9.09746 12.0525 6.77229C12.0525 4.44711 10.2125 2.58325 7.91699 2.58325C5.62152 2.58325 3.78147 4.44711 3.78147 6.77229C3.78147 9.09746 5.62152 10.9613 7.91699 10.9613ZM7.91699 13.0126C4.54551 13.0126 1.66699 13.5516 1.66699 15.7053C1.66699 17.8581 4.528 18.4166 7.91699 18.4166C11.2876 18.4166 14.167 17.8775 14.167 15.7239C14.167 13.5702 11.306 13.0126 7.91699 13.0126ZM16.5819 8.4898H17.5845C17.9972 8.4898 18.3337 8.83101 18.3337 9.24949C18.3337 9.66796 17.9972 10.0092 17.5845 10.0092H16.5819V10.9902C16.5819 11.4087 16.2463 11.7499 15.8328 11.7499C15.4201 11.7499 15.0837 11.4087 15.0837 10.9902V10.0092H14.0828C13.6693 10.0092 13.3337 9.66796 13.3337 9.24949C13.3337 8.83101 13.6693 8.4898 14.0828 8.4898H15.0837V7.5096C15.0837 7.09112 15.4201 6.74992 15.8328 6.74992C16.2463 6.74992 16.5819 7.09112 16.5819 7.5096V8.4898Z" fill="white"/>
</svg>
