<svg width="28" height="28" viewBox="0 0 28 28" fill="none" xmlns="http://www.w3.org/2000/svg">
<mask id="mask0_426_4513" style="mask-type:luminance" maskUnits="userSpaceOnUse" x="1" y="1" width="26" height="26">
<path fill-rule="evenodd" clip-rule="evenodd" d="M1.16699 1.16699H26.2422V26.2431H1.16699V1.16699Z" fill="white"/>
</mask>
<g mask="url(#mask0_426_4513)">
<path fill-rule="evenodd" clip-rule="evenodd" d="M7.12684 22.9545C7.8035 22.9545 8.44167 23.2112 9.11717 23.483C13.2553 25.3963 18.1495 24.526 21.338 21.3387C25.545 17.1293 25.545 10.2822 21.338 6.07516C19.301 4.03816 16.592 2.91699 13.708 2.91699C10.8228 2.91699 8.11267 4.03933 6.07684 6.07633C2.88717 9.26366 2.01917 14.1578 3.915 18.2563C4.188 18.9318 4.45167 19.5898 4.45167 20.2735C4.45167 20.956 4.21717 21.6432 4.01067 22.2498C3.84034 22.7492 3.5825 23.5028 3.74817 23.6685C3.91034 23.8365 4.66867 23.5717 5.16917 23.4002C5.77 23.1948 6.45134 22.9592 7.12684 22.9545ZM13.6788 26.2433C11.8962 26.2433 10.1018 25.8665 8.423 25.0895C7.92834 24.8912 7.46517 24.7045 7.13267 24.7045C6.75 24.7068 6.2355 24.8842 5.7385 25.0557C4.71884 25.4057 3.4495 25.842 2.51034 24.9063C1.57467 23.9695 2.00634 22.7037 2.354 21.6852C2.5255 21.1835 2.70167 20.6655 2.70167 20.2735C2.70167 19.9515 2.5465 19.5408 2.3085 18.9493C0.123335 14.2302 1.13367 8.54266 4.84017 4.83849C7.20617 2.47133 10.355 1.16699 13.7068 1.16699C17.0587 1.16699 20.2087 2.47016 22.5747 4.83733C27.4653 9.72799 27.4653 17.6847 22.5747 22.5753C20.1772 24.974 16.949 26.2433 13.6788 26.2433Z" fill="white"/>
</g>
<path fill-rule="evenodd" clip-rule="evenodd" d="M18.3129 15.3568C17.6689 15.3568 17.1416 14.8353 17.1416 14.1901C17.1416 13.5449 17.6584 13.0234 18.3024 13.0234H18.3129C18.9569 13.0234 19.4796 13.5449 19.4796 14.1901C19.4796 14.8353 18.9569 15.3568 18.3129 15.3568Z" fill="white"/>
<path fill-rule="evenodd" clip-rule="evenodd" d="M13.6362 15.3568C12.9922 15.3568 12.4648 14.8353 12.4648 14.1901C12.4648 13.5449 12.9805 13.0234 13.6257 13.0234H13.6362C14.2802 13.0234 14.8028 13.5449 14.8028 14.1901C14.8028 14.8353 14.2802 15.3568 13.6362 15.3568Z" fill="white"/>
<path fill-rule="evenodd" clip-rule="evenodd" d="M8.95844 15.3568C8.31444 15.3568 7.78711 14.8353 7.78711 14.1901C7.78711 13.5449 8.30394 13.0234 8.94794 13.0234H8.95844C9.60244 13.0234 10.1251 13.5449 10.1251 14.1901C10.1251 14.8353 9.60244 15.3568 8.95844 15.3568Z" fill="white"/>
</svg>
