<svg width="20" height="21" viewBox="0 0 20 21" fill="none" xmlns="http://www.w3.org/2000/svg">
<path fill-rule="evenodd" clip-rule="evenodd" d="M1.66699 10.5126C1.66699 6.12268 5.17533 2.16675 10.017 2.16675C14.7503 2.16675 18.3337 6.04757 18.3337 10.4876C18.3337 15.637 14.1337 18.8334 10.0003 18.8334C8.63366 18.8334 7.11699 18.4662 5.90033 17.7485C5.47533 17.4897 5.11699 17.2978 4.65866 17.448L2.97533 17.9488C2.55033 18.0823 2.16699 17.7485 2.29199 17.2978L2.85033 15.4283C2.94199 15.1696 2.92533 14.8942 2.79199 14.6772C2.07533 13.3585 1.66699 11.9147 1.66699 10.5126ZM8.91699 10.5126C8.91699 11.1052 9.39199 11.5809 9.98366 11.5892C10.5753 11.5892 11.0503 11.1052 11.0503 10.5209C11.0503 9.92839 10.5753 9.45268 9.98366 9.45268C9.40033 9.44433 8.91699 9.92839 8.91699 10.5126ZM12.7587 10.5209C12.7587 11.1052 13.2337 11.5892 13.8253 11.5892C14.417 11.5892 14.892 11.1052 14.892 10.5209C14.892 9.92839 14.417 9.45268 13.8253 9.45268C13.2337 9.45268 12.7587 9.92839 12.7587 10.5209ZM6.14199 11.5892C5.55866 11.5892 5.07533 11.1052 5.07533 10.5209C5.07533 9.92839 5.55033 9.45268 6.14199 9.45268C6.73366 9.45268 7.20866 9.92839 7.20866 10.5209C7.20866 11.1052 6.73366 11.5809 6.14199 11.5892Z" fill="#6949FF"/>
</svg>
