<svg width="28" height="28" viewBox="0 0 28 28" fill="none" xmlns="http://www.w3.org/2000/svg">
<path fill-rule="evenodd" clip-rule="evenodd" d="M13.9997 4.08337C8.53151 4.08337 4.08301 8.53187 4.08301 14C4.08301 19.4682 8.53151 23.9167 13.9997 23.9167C19.4678 23.9167 23.9163 19.4682 23.9163 14C23.9163 8.53187 19.4678 4.08337 13.9997 4.08337ZM13.9997 25.6667C7.56667 25.6667 2.33301 20.433 2.33301 14C2.33301 7.56704 7.56667 2.33337 13.9997 2.33337C20.4327 2.33337 25.6663 7.56704 25.6663 14C25.6663 20.433 20.4327 25.6667 13.9997 25.6667Z" fill="white"/>
<path fill-rule="evenodd" clip-rule="evenodd" d="M13.9932 15.6019C13.5102 15.6019 13.1182 15.2099 13.1182 14.7269V9.57141C13.1182 9.08841 13.5102 8.69641 13.9932 8.69641C14.4762 8.69641 14.8682 9.08841 14.8682 9.57141V14.7269C14.8682 15.2099 14.4762 15.6019 13.9932 15.6019Z" fill="white"/>
<path fill-rule="evenodd" clip-rule="evenodd" d="M14.0045 19.5953C13.3594 19.5953 12.832 19.0738 12.832 18.4286C12.832 17.7835 13.3489 17.262 13.9929 17.262H14.0045C14.6497 17.262 15.1712 17.7835 15.1712 18.4286C15.1712 19.0738 14.6497 19.5953 14.0045 19.5953Z" fill="white"/>
</svg>
