<svg width="32" height="32" viewBox="0 0 32 32" fill="none" xmlns="http://www.w3.org/2000/svg">
<path fill-rule="evenodd" clip-rule="evenodd" d="M10.227 2.6665H21.787C26.307 2.6665 29.3337 5.83984 29.3337 10.5598V21.4545C29.3337 26.1598 26.307 29.3332 21.787 29.3332H10.227C5.70699 29.3332 2.66699 26.1598 2.66699 21.4545V10.5598C2.66699 5.83984 5.70699 2.6665 10.227 2.6665ZM15.2403 19.9865L21.5737 13.6532C22.027 13.1998 22.027 12.4665 21.5737 11.9998C21.1203 11.5465 20.3737 11.5465 19.9203 11.9998L14.4137 17.5065L12.0803 15.1732C11.627 14.7198 10.8803 14.7198 10.427 15.1732C9.97366 15.6265 9.97366 16.3598 10.427 16.8265L13.6003 19.9865C13.827 20.2132 14.1203 20.3198 14.4137 20.3198C14.7203 20.3198 15.0137 20.2132 15.2403 19.9865Z" fill="white"/>
</svg>
