<svg width="32" height="32" viewBox="0 0 32 32" fill="none" xmlns="http://www.w3.org/2000/svg">
<path d="M30.025 24.9111L24.7675 15.1886C25.3039 13.9712 25.604 12.6259 25.604 11.2104C25.604 5.75532 21.1816 1.33337 15.7269 1.33337C10.2709 1.33337 5.84896 5.75577 5.84896 11.2104C5.84896 12.66 6.16385 14.0355 6.72446 15.2753L1.44364 24.9066C1.27336 25.2161 1.30166 25.5979 1.51459 25.8805C1.72796 26.1621 2.08822 26.2946 2.43228 26.2138L6.94181 25.1793L8.48527 29.4781C8.60566 29.8124 8.91067 30.0441 9.26419 30.0702C9.28713 30.072 9.30911 30.0729 9.33067 30.0729C9.49312 30.0728 9.65251 30.0287 9.79189 29.9453C9.93126 29.8618 10.0454 29.7421 10.1222 29.599L14.7179 21.0368C15.053 21.0707 15.3896 21.0877 15.7264 21.0875C16.0386 21.0875 16.3467 21.0714 16.6513 21.0426L21.3468 29.6057C21.4299 29.7575 21.5551 29.8821 21.7073 29.9644C21.8595 30.0467 22.0323 30.0833 22.2048 30.0697C22.5574 30.0414 22.861 29.8101 22.9805 29.4777L24.524 25.1788L29.0335 26.2133C29.3794 26.2969 29.7361 26.1626 29.9494 25.8818C30.1637 25.6015 30.1925 25.2215 30.025 24.9111ZM9.49412 26.9711L8.36388 23.8222C8.20935 23.3941 7.76107 23.1448 7.31723 23.2504L3.98191 24.0153L7.78356 17.0815C9.03549 18.7727 10.8143 20.0484 12.8775 20.6693L9.49412 26.9711ZM24.1484 23.2503C23.7028 23.1452 23.2563 23.3941 23.1018 23.8221L21.9639 26.9939L18.5064 20.6894C20.6244 20.069 22.4464 18.7597 23.7145 17.019L27.5004 24.0189L24.1484 23.2503Z" fill="#FFC02D"/>
<path d="M14.3618 15.7998C13.9951 15.7998 13.8118 15.6198 13.8118 15.2598C13.8118 14.9131 13.9951 14.7398 14.3618 14.7398H15.4818V10.2098L14.6318 10.7198C14.4718 10.8131 14.3251 10.8365 14.1918 10.7898C14.0651 10.7431 13.9684 10.6598 13.9018 10.5398C13.8351 10.4198 13.8151 10.2898 13.8418 10.1498C13.8684 10.0031 13.9618 9.88314 14.1218 9.7898L15.5018 8.9598C15.6351 8.8798 15.7684 8.81314 15.9018 8.7598C16.0351 8.6998 16.1584 8.6698 16.2718 8.6698C16.4118 8.6698 16.5284 8.7098 16.6218 8.7898C16.7151 8.86314 16.7618 8.98647 16.7618 9.1598V14.7398H17.7818C18.1484 14.7398 18.3318 14.9131 18.3318 15.2598C18.3318 15.6198 18.1484 15.7998 17.7818 15.7998H14.3618Z" fill="white"/>
</svg>
