<svg width="26" height="26" viewBox="0 0 26 26" fill="none" xmlns="http://www.w3.org/2000/svg">
<path d="M0.866211 12.5147C0.866211 7.02378 0.866211 4.27832 2.57202 2.57251C4.27783 0.866699 7.02329 0.866699 12.5142 0.866699H13.4849C18.9758 0.866699 21.7213 0.866699 23.4271 2.57251C25.1329 4.27832 25.1329 7.02378 25.1329 12.5147V13.4854C25.1329 18.9763 25.1329 21.7217 23.4271 23.4276C21.7213 25.1334 18.9758 25.1334 13.4849 25.1334H12.5142C7.02329 25.1334 4.27783 25.1334 2.57202 23.4276C0.866211 21.7217 0.866211 18.9763 0.866211 13.4854V12.5147Z" fill="#6949FF"/>
<path d="M5.52539 14.4825C5.52539 17.8226 8.23307 20.5303 11.5732 20.5303H14.3922C17.7323 20.5303 20.44 17.8226 20.44 14.4825V14.4825C20.44 11.1424 17.7323 8.43474 14.3922 8.43474H11.5732C8.23307 8.43474 5.52539 11.1424 5.52539 14.4825V14.4825Z" fill="#673AB3"/>
<path d="M11.3514 13.8941C11.5332 14.6175 12.3527 14.9475 13.0372 14.9843C13.5961 15.0149 14.997 14.7063 14.8968 13.9124C14.8805 13.7776 14.7609 13.6294 14.6036 13.6887C14.3349 13.7898 14.2317 14.0483 13.9885 14.1985C13.7228 14.3641 13.401 14.4243 13.0914 14.4213C12.5315 14.4141 11.9368 14.2118 11.5772 13.7622C11.4883 13.6509 11.3207 13.7735 11.3514 13.8941Z" fill="#133441"/>
<path d="M3.77135 12.0671C3.84288 13.7039 5.22838 14.9729 6.86727 14.9014C8.50515 14.8309 9.77622 13.4475 9.7047 11.8106C9.6342 10.1748 8.24869 8.90576 6.6098 8.97626C4.9709 9.04778 3.70085 10.4312 3.77135 12.0671Z" fill="white"/>
<path d="M8.06107 13.0877C7.87716 13.2962 7.58903 13.3411 7.41635 13.1899C7.24367 13.0377 7.25183 12.7465 7.43473 12.539C7.61864 12.3306 7.90678 12.2857 8.07945 12.4369C8.25213 12.5891 8.24397 12.8803 8.06107 13.0877ZM6.48655 11.7298C6.16981 12.0885 5.67119 12.1671 5.37284 11.9045C5.07449 11.643 5.08878 11.1392 5.40553 10.7796C5.72125 10.421 6.21987 10.3423 6.51924 10.6038C6.81759 10.8664 6.8033 11.3702 6.48655 11.7298ZM8.78039 11.8504C8.73135 10.7234 7.77702 9.84979 6.64798 9.89883C5.51894 9.94686 4.64433 10.9002 4.69337 12.0271C4.74242 13.1541 5.69673 14.0288 6.82577 13.9797C7.95378 13.9307 8.82944 12.9774 8.78039 11.8504" fill="#133441"/>
<path d="M16.5458 12.0671C16.6173 13.7039 18.0028 14.9729 19.6417 14.9014C21.2796 14.8309 22.5506 13.4475 22.4791 11.8106C22.4086 10.1748 21.0231 8.90576 19.3842 8.97626C17.7453 9.04778 16.4753 10.4312 16.5458 12.0671Z" fill="white"/>
<path d="M20.9714 13.0142C20.7885 13.2216 20.4994 13.2676 20.3267 13.1163C20.154 12.9641 20.1632 12.6729 20.3461 12.4645C20.529 12.257 20.8172 12.2111 20.9898 12.3633C21.1625 12.5145 21.1543 12.8067 20.9714 13.0142V13.0142ZM19.2876 11.6103C18.9289 11.926 18.4242 11.9423 18.1606 11.644C17.898 11.3467 17.9756 10.8491 18.3343 10.5323C18.6939 10.2156 19.1977 10.2003 19.4613 10.4976C19.7249 10.7949 19.6472 11.2935 19.2876 11.6103ZM21.5538 11.8504C21.5048 10.7234 20.5505 9.84979 19.4214 9.89883C18.2934 9.94686 17.4178 10.9002 17.4668 12.0271C17.5148 13.1541 18.4702 14.0288 19.5992 13.9797C20.7272 13.9307 21.6029 12.9774 21.5538 11.8504" fill="#133441"/>
<path d="M17.3522 6.35344C17.2838 6.87454 18.1983 7.17902 19.2231 7.29244C20.1416 7.39461 21.0275 7.57546 21.238 6.90928C21.6722 5.54013 17.5607 4.78607 17.3522 6.35344Z" fill="#133441"/>
<path d="M5.00914 6.89706C5.21553 7.56325 6.10242 7.38853 7.02098 7.29351C8.04784 7.18725 8.96436 6.88787 8.89897 6.36677C8.70177 4.79838 4.58511 5.52485 5.00914 6.89706Z" fill="#133441"/>
<path d="M22.7049 15.6873C22.7049 16.0684 22.1277 16.377 21.4145 16.377C20.7023 16.377 20.125 16.0684 20.125 15.6873C20.125 15.3062 20.7023 14.9976 21.4145 14.9976C22.1277 14.9976 22.7049 15.3062 22.7049 15.6873Z" fill="#A592FF"/>
<path d="M5.87192 15.6873C5.87192 16.0684 5.29464 16.377 4.58146 16.377C3.8693 16.377 3.29199 16.0684 3.29199 15.6873C3.29199 15.3062 3.8693 14.9976 4.58146 14.9976C5.29464 14.9976 5.87192 15.3062 5.87192 15.6873Z" fill="#A592FF"/>
</svg>
