<svg width="29" height="28" viewBox="0 0 29 28" fill="none" xmlns="http://www.w3.org/2000/svg">
<path fill-rule="evenodd" clip-rule="evenodd" d="M10.0967 3.03337C10.2857 2.60754 10.7068 2.33337 11.1735 2.33337H20.48C21.355 2.33337 21.9255 3.25504 21.5335 4.03904L18.8863 9.33337H22.804C23.854 9.33337 24.379 10.6027 23.637 11.3447L9.69185 25.2899C8.81218 26.1695 7.34685 25.2642 7.74118 24.0847L10.7138 15.1667H6.51618C6.31988 15.1667 6.1267 15.1177 5.95417 15.024C5.78164 14.9304 5.63524 14.7951 5.52826 14.6306C5.42128 14.466 5.35711 14.2773 5.34158 14.0816C5.32606 13.8859 5.35966 13.6894 5.43935 13.51L10.0967 3.03337Z" fill="url(#paint0_linear_347_5639)"/>
<defs>
<linearGradient id="paint0_linear_347_5639" x1="23.9845" y1="25.6421" x2="1.15946" y2="20.3479" gradientUnits="userSpaceOnUse">
<stop stop-color="#FB9400"/>
<stop offset="1" stop-color="#FFAB38"/>
</linearGradient>
</defs>
</svg>
