<svg width="32" height="32" viewBox="0 0 32 32" fill="none" xmlns="http://www.w3.org/2000/svg">
<path fill-rule="evenodd" clip-rule="evenodd" d="M16.2333 20.2899H15.7671C12.5625 20.2899 9.9651 17.7236 9.9651 14.5605V8.39611C9.9651 5.23166 12.5625 2.66669 15.7671 2.66669H16.2333C19.4378 2.66669 22.0366 5.23166 22.0366 8.39611V14.5605C22.0366 17.7236 19.4378 20.2899 16.2333 20.2899ZM24.7504 14.3772C24.7504 13.6718 25.3291 13.1017 26.042 13.1017C26.755 13.1017 27.3337 13.6718 27.3337 14.3772C27.3337 20.1155 22.9344 24.8539 17.2926 25.4904V28.0579C17.2926 28.7619 16.7139 29.3334 16.001 29.3334C15.2867 29.3334 14.7094 28.7619 14.7094 28.0579V25.4904C9.06626 24.8539 4.66699 20.1155 4.66699 14.3772C4.66699 13.6718 5.24564 13.1017 5.95861 13.1017C6.67159 13.1017 7.25024 13.6718 7.25024 14.3772C7.25024 19.1411 11.1755 23.0172 16.001 23.0172C20.8252 23.0172 24.7504 19.1411 24.7504 14.3772Z" fill="#6949FF"/>
</svg>
