<svg width="28" height="28" viewBox="0 0 28 28" fill="none" xmlns="http://www.w3.org/2000/svg">
<path fill-rule="evenodd" clip-rule="evenodd" d="M13.9997 4.08337C8.53151 4.08337 4.08301 8.53187 4.08301 14C4.08301 19.4682 8.53151 23.9167 13.9997 23.9167C19.4678 23.9167 23.9163 19.4682 23.9163 14C23.9163 8.53187 19.4678 4.08337 13.9997 4.08337ZM13.9997 25.6667C7.56667 25.6667 2.33301 20.433 2.33301 14C2.33301 7.56704 7.56667 2.33337 13.9997 2.33337C20.4327 2.33337 25.6663 7.56704 25.6663 14C25.6663 20.433 20.4327 25.6667 13.9997 25.6667Z" fill="#212121"/>
<path fill-rule="evenodd" clip-rule="evenodd" d="M18.6061 15.1827C17.9609 15.1827 17.4336 14.6612 17.4336 14.016C17.4336 13.3709 17.9504 12.8494 18.5944 12.8494H18.6061C19.2513 12.8494 19.7728 13.3709 19.7728 14.016C19.7728 14.6612 19.2513 15.1827 18.6061 15.1827Z" fill="#212121"/>
<path fill-rule="evenodd" clip-rule="evenodd" d="M13.9282 15.1827C13.283 15.1827 12.7568 14.6612 12.7568 14.016C12.7568 13.3709 13.2725 12.8494 13.9177 12.8494H13.9282C14.5733 12.8494 15.0948 13.3709 15.0948 14.016C15.0948 14.6612 14.5733 15.1827 13.9282 15.1827Z" fill="#212121"/>
<path fill-rule="evenodd" clip-rule="evenodd" d="M9.25062 15.1827C8.60546 15.1827 8.07812 14.6612 8.07812 14.016C8.07812 13.3709 8.59496 12.8494 9.24012 12.8494H9.25062C9.89579 12.8494 10.4173 13.3709 10.4173 14.016C10.4173 14.6612 9.89579 15.1827 9.25062 15.1827Z" fill="#212121"/>
</svg>
