<svg width="24" height="24" viewBox="0 0 24 24" fill="none" xmlns="http://www.w3.org/2000/svg">
<mask id="mask0_412_4508" style="mask-type:luminance" maskUnits="userSpaceOnUse" x="0" y="0" width="24" height="24">
<path fill-rule="evenodd" clip-rule="evenodd" d="M0.333008 0.500488H23.0818V23.2493H0.333008V0.500488Z" fill="white"/>
</mask>
<g mask="url(#mask0_412_4508)">
<path fill-rule="evenodd" clip-rule="evenodd" d="M10.6054 14.2875L14.8719 21.2093C15.0586 21.5126 15.3503 21.5091 15.4681 21.4928C15.5859 21.4765 15.8694 21.4041 15.9721 21.06L21.3073 3.04081C21.4006 2.72231 21.2291 2.50531 21.1521 2.42831C21.0774 2.35131 20.8639 2.18681 20.5548 2.27431L2.52278 7.55465C2.18094 7.65498 2.10628 7.94198 2.08994 8.05981C2.07361 8.17998 2.06894 8.47748 2.37111 8.66765L9.37228 13.0461L15.5579 6.79515C15.8974 6.45215 16.4516 6.44865 16.7958 6.78815C17.1399 7.12765 17.1423 7.68298 16.8028 8.02598L10.6054 14.2875ZM15.3771 23.2498C14.5651 23.2498 13.8208 22.8368 13.3821 22.1275L8.85894 14.788L1.44361 10.1505C0.644444 9.64998 0.226777 8.75865 0.356277 7.82181C0.48461 6.88498 1.12744 6.14065 2.03044 5.87581L20.0624 0.595482C20.8919 0.352815 21.7809 0.582648 22.3923 1.19165C23.0036 1.80648 23.2311 2.70481 22.9838 3.53781L17.6486 21.5558C17.3814 22.4623 16.6348 23.1028 15.7003 23.2276C15.5906 23.2416 15.4844 23.2498 15.3771 23.2498Z" fill="white"/>
</g>
</svg>
