<svg width="60" height="60" viewBox="0 0 60 60" fill="none" xmlns="http://www.w3.org/2000/svg">
<rect width="60" height="60" rx="30" fill="url(#paint0_linear_2042_31852)"/>
<path fill-rule="evenodd" clip-rule="evenodd" d="M31.5836 23.5257C31.5249 22.9583 31.4637 22.3696 31.3132 21.7821C30.9034 20.3768 29.7681 19.5 28.5509 19.5C27.8719 19.4975 27.0131 19.9159 26.5262 20.3392L22.4903 23.7198H20.3776C18.8227 23.7198 17.5724 24.9185 17.3363 26.6482C17.1357 28.3091 17.0867 31.4442 17.3363 33.2716C17.5528 35.0991 18.7469 36.2802 20.3776 36.2802H22.4903L26.6045 39.7109C27.0266 40.0779 27.7716 40.4987 28.4567 40.4987C28.5007 40.5 28.5399 40.5 28.579 40.5C29.8195 40.5 30.912 39.5906 31.3218 38.1891C31.4762 37.5965 31.5303 37.0411 31.5826 36.5044L31.5836 36.4944L31.6387 35.9596C31.8491 34.2248 31.8491 25.7639 31.6387 24.0417L31.5836 23.5257ZM36.308 23.577C35.9716 23.081 35.3048 22.957 34.8167 23.3015C34.3335 23.6484 34.2136 24.3323 34.55 24.827C35.4859 26.2061 36.0009 28.0423 36.0009 30C36.0009 31.9565 35.4859 33.7939 34.55 35.173C34.2136 35.6677 34.3335 36.3516 34.8179 36.6985C34.999 36.8263 35.2106 36.8939 35.4284 36.8939C35.7795 36.8939 36.1074 36.7173 36.308 36.423C37.4898 34.682 38.1418 32.4011 38.1418 30C38.1418 27.5989 37.4898 25.318 36.308 23.577ZM38.5054 19.7579C38.9923 19.4122 39.6615 19.5387 39.9955 20.0335C41.8256 22.7277 42.8337 26.2686 42.8337 29.9999C42.8337 33.7337 41.8256 37.2733 39.9955 39.9675C39.796 40.2619 39.467 40.4385 39.1159 40.4385C38.8981 40.4385 38.6877 40.3709 38.5066 40.2431C38.0222 39.8961 37.9023 39.2135 38.2375 38.7175C39.8205 36.3853 40.6928 33.289 40.6928 29.9999C40.6928 26.712 39.8205 23.6157 38.2375 21.2835C37.9023 20.7887 38.0222 20.1049 38.5054 19.7579Z" fill="white"/>
<defs>
<linearGradient id="paint0_linear_2042_31852" x1="60" y1="60" x2="-11.3946" y2="39.2998" gradientUnits="userSpaceOnUse">
<stop stop-color="#6949FF"/>
<stop offset="1" stop-color="#876DFF"/>
</linearGradient>
</defs>
</svg>
