<svg width="31" height="29" viewBox="0 0 31 29" fill="none" xmlns="http://www.w3.org/2000/svg">
<path d="M13.8655 0.669641C7.28551 0.519641 0.0280097 5.97714 0.16801 14.8171C0.29051 22.5896 6.13051 28.4721 13.698 28.5946C21.2655 28.7171 27.9705 23.7146 28.0105 14.7771C28.053 5.76964 21.103 0.834641 13.8655 0.669641Z" fill="#FF2A23"/>
<path d="M13.8853 3.82505C8.66528 4.00255 3.39778 7.89755 3.27528 14.7651C3.15278 21.6326 9.15528 25.4576 13.8853 25.4576C19.8903 25.4576 24.9078 20.7276 24.7828 14.4351C24.6603 8.14505 19.9303 3.62005 13.8853 3.82505Z" fill="#FFFDFE"/>
<path d="M14.0082 6.50008C9.2782 6.39258 5.7832 10.5726 5.7407 14.5601C5.7007 18.6326 8.2482 22.7851 13.9257 22.9901C19.6032 23.1951 22.2732 18.6726 22.3557 14.8476C22.4407 11.0226 19.3957 6.62258 14.0082 6.50008Z" fill="#FF2A23"/>
<path d="M8.60203 14.71C8.56203 18.2875 11.1095 20.345 14.1945 20.345C16.997 20.345 19.747 18.5775 19.747 14.835C19.747 11.4625 17.197 9.44747 14.3595 9.32497C11.522 9.19997 8.64203 11.2575 8.60203 14.71Z" fill="white"/>
<path d="M11.1305 14.6824C10.978 16.8149 12.713 17.8349 14.2755 17.8349C15.7555 17.8349 17.2155 16.8624 17.258 14.8874C17.2955 13.0324 15.8405 11.8999 14.2755 11.8449C12.6605 11.7899 11.253 12.9499 11.1305 14.6824Z" fill="#FB2B22"/>
<path d="M14.7906 14.8496L13.9531 15.3146L15.5506 17.5871C15.5506 17.5871 16.7856 17.6821 17.0706 17.3596C17.3556 17.0371 17.0331 16.0871 17.0331 16.0871L14.7906 14.8496Z" fill="#CC1935"/>
<path d="M19.9621 12.3795C19.7371 11.9145 19.5071 11.542 18.8971 11.657C18.2896 11.772 17.1671 12.417 16.9571 12.722C16.7646 13.002 16.5771 13.3495 16.5771 13.3495C16.5771 13.3495 14.4271 14.5245 14.0871 14.717C13.5546 15.022 13.9221 15.642 14.2971 15.572C14.8096 15.477 17.0996 14.5445 17.0996 14.5445C17.0996 14.5445 17.5846 14.6595 17.8696 14.6595C18.1546 14.6595 19.7796 13.857 19.9996 13.7095C20.3621 13.462 20.1896 12.8545 19.9621 12.3795Z" fill="#ACB1B5"/>
<path d="M17.0269 16.082C17.0269 16.082 16.9069 16.507 16.4694 16.947C16.0144 17.402 15.5469 17.582 15.5469 17.582L16.9894 19.697C16.9894 19.697 18.0619 19.7745 18.8419 19.0145C19.6219 18.2545 19.2819 17.2595 19.2819 17.2595L17.0269 16.082Z" fill="#C8C8C8"/>
<path d="M18.4563 21.9196L16.9863 19.6946C16.9863 19.6946 17.2313 19.5646 17.5538 19.3446C18.1463 18.9396 18.4763 18.6171 18.8988 17.9571C19.1288 17.6021 19.2763 17.2571 19.2763 17.2571L21.5488 18.3796C21.5488 18.3796 21.4988 20.1346 20.7563 20.9896C20.0138 21.8446 18.4563 21.9196 18.4563 21.9196Z" fill="#CC1935"/>
<path d="M18.457 21.9201L19.7195 23.8126C19.7195 23.8126 21.367 23.9751 22.717 22.3576C24.067 20.7401 23.707 19.4101 23.707 19.4101L21.5495 18.3776C21.5495 18.3776 21.1295 19.3876 20.2945 20.3576C19.4595 21.3276 18.457 21.9201 18.457 21.9201Z" fill="#C8C8C8"/>
<path d="M21.5882 26.6097L19.7207 23.8147C19.7207 23.8147 21.1282 22.9922 22.1282 21.8097C23.1657 20.5822 23.7082 19.4147 23.7082 19.4147L26.7307 20.9172C26.7307 20.9172 26.0507 22.6747 24.5432 24.2622C23.0682 25.8097 21.5882 26.6097 21.5882 26.6097Z" fill="#CC1935"/>
<path d="M18.5083 13.1201C18.7908 13.6476 19.2583 13.6526 19.7533 13.4426C20.2483 13.2326 22.5858 11.5801 22.5858 11.5801C22.5858 11.5801 25.7608 13.1776 27.8133 12.3776C29.8658 11.5801 29.8083 9.41258 29.8083 9.41258L28.5933 8.64258C28.5933 8.64258 29.4783 8.18258 29.7633 8.01258C29.9033 7.92758 30.1108 7.61258 29.9958 7.33008C29.9058 7.11008 29.5608 7.03508 29.2758 7.15008C28.9908 7.26508 28.1683 7.52258 28.1683 7.52258C28.1683 7.52258 28.4958 6.16008 28.4383 6.08508C28.3808 6.01008 27.7908 5.70508 27.7908 5.70508C27.7908 5.70508 25.8708 5.70508 25.6233 5.80008C25.3758 5.89508 23.4758 7.77758 23.4758 7.77758L22.5633 9.64008L22.1733 10.4701C22.1733 10.4701 19.5108 11.6626 19.1108 11.8326C18.7133 12.0051 18.1608 12.4776 18.5083 13.1201Z" fill="#006CA9"/>
<path d="M22.7409 10.2398C22.7409 10.2398 23.8609 9.42977 24.6584 9.02977C25.4559 8.62977 26.9359 8.14227 27.3734 8.08977C27.8109 8.03727 27.9909 8.15477 28.0684 8.35977C28.1459 8.56477 27.8884 8.82227 27.6684 8.93977C27.4509 9.05477 26.2909 9.58227 25.0059 10.2648C23.7209 10.9473 23.1109 11.4473 22.5909 11.5648C22.3284 11.6248 21.9909 11.3898 21.9709 10.9973C21.9559 10.6923 22.0159 10.4373 22.2159 9.85227C22.4609 9.13227 22.9984 8.04977 23.4509 7.34477C24.1209 6.30227 25.0859 5.59477 26.1534 5.40227C27.2209 5.20977 28.0959 5.47977 28.3159 5.65977C28.5334 5.83977 28.5209 6.02477 28.4434 6.08727C28.3659 6.14977 28.2509 6.19977 27.6709 5.99477C27.2684 5.85227 25.9859 5.85227 25.0859 6.52227C24.1759 7.19727 23.9534 7.61477 23.5559 8.34977C23.1584 9.08477 22.7409 10.2398 22.7409 10.2398Z" fill="#1F87FD"/>
</svg>
