<svg width="17" height="17" viewBox="0 0 17 17" fill="none" xmlns="http://www.w3.org/2000/svg">
<path d="M13.9691 13.1279L9.50664 7.83416L8.63164 8.70916L13.9691 13.1279ZM8.63164 0.134155H9.24414V2.58415H8.63164V0.134155ZM8.63164 13.6967H9.24414V16.1467H8.63164V13.6967ZM0.931641 7.83416H3.38164V8.44666H0.931641V7.83416ZM14.4941 7.83416H16.9441V8.44666H14.4941V7.83416ZM4.64077 1.34297L5.17145 1.03672L5.78395 2.09765L5.25327 2.40391L4.64077 1.34297ZM1.81889 4.40547L2.12514 3.87522L3.18608 4.48772L2.87983 5.01841L1.81889 4.40547ZM1.83333 11.9082L2.89383 11.2948L3.20008 11.825L2.14002 12.4384L1.83333 11.9082ZM4.67314 14.9549L5.28564 13.894L5.81589 14.2002L5.20339 15.2612L4.67314 14.9549ZM12.0695 14.1455L12.5998 13.8393L13.2123 14.9002L12.6825 15.2065L12.0695 14.1455ZM14.6691 11.8285L14.9754 11.2978L16.0363 11.9108L15.7301 12.4415L14.6691 11.8285ZM14.6368 4.47766L15.6973 3.86516L16.0035 4.39541L14.943 5.00791L14.6368 4.47766ZM12.0599 2.08103L12.6728 1.02053L13.2031 1.32678L12.5906 2.38772L12.0599 2.08103Z" fill="#3E4347"/>
<path d="M8.93789 9.36541C9.61444 9.36541 10.1629 8.81695 10.1629 8.14041C10.1629 7.46386 9.61444 6.91541 8.93789 6.91541C8.26134 6.91541 7.71289 7.46386 7.71289 8.14041C7.71289 8.81695 8.26134 9.36541 8.93789 9.36541Z" fill="#3E4347"/>
</svg>
