<svg width="28" height="28" viewBox="0 0 28 28" fill="none" xmlns="http://www.w3.org/2000/svg">
<path d="M1.86621 13.5147C1.86621 8.02378 1.86621 5.27832 3.57202 3.57251C5.27783 1.8667 8.02329 1.8667 13.5142 1.8667H14.4849C19.9758 1.8667 22.7213 1.8667 24.4271 3.57251C26.1329 5.27832 26.1329 8.02378 26.1329 13.5147V14.4854C26.1329 19.9763 26.1329 22.7217 24.4271 24.4276C22.7213 26.1334 19.9758 26.1334 14.4849 26.1334H13.5142C8.02329 26.1334 5.27783 26.1334 3.57202 24.4276C1.86621 22.7217 1.86621 19.9763 1.86621 14.4854V13.5147Z" fill="#6949FF"/>
<path d="M6.52539 15.4824C6.52539 18.8225 9.23307 21.5302 12.5732 21.5302H15.3922C18.7323 21.5302 21.44 18.8225 21.44 15.4824C21.44 12.1423 18.7323 9.43461 15.3922 9.43461H12.5732C9.23307 9.43461 6.52539 12.1423 6.52539 15.4824Z" fill="#673AB3"/>
<path d="M12.3514 14.8939C12.5332 15.6173 13.3527 15.9474 14.0372 15.9841C14.5961 16.0148 15.997 15.7062 15.8968 14.9123C15.8805 14.7774 15.7609 14.6293 15.6036 14.6886C15.3349 14.7897 15.2317 15.0482 14.9885 15.1984C14.7228 15.3639 14.401 15.4242 14.0914 15.4212C13.5315 15.414 12.9368 15.2117 12.5772 14.7621C12.4883 14.6508 12.3207 14.7734 12.3514 14.8939Z" fill="#133441"/>
<path d="M4.77135 13.0669C4.84288 14.7038 6.22838 15.9728 7.86727 15.9013C9.50515 15.8308 10.7762 14.4473 10.7047 12.8105C10.6342 11.1747 9.24869 9.90563 7.6098 9.97614C5.9709 10.0477 4.70085 11.4311 4.77135 13.0669Z" fill="white"/>
<path d="M9.06107 14.0876C8.87716 14.296 8.58903 14.341 8.41635 14.1898C8.24367 14.0375 8.25183 13.7463 8.43473 13.5389C8.61864 13.3305 8.90678 13.2855 9.07945 13.4368C9.25213 13.589 9.24397 13.8802 9.06107 14.0876ZM7.48655 12.7297C7.16981 13.0883 6.67119 13.167 6.37284 12.9044C6.07449 12.6428 6.08878 12.1391 6.40553 11.7795C6.72125 11.4208 7.21987 11.3422 7.51924 11.6037C7.81759 11.8663 7.8033 12.37 7.48655 12.7297ZM9.78039 12.8503C9.73135 11.7233 8.77702 10.8497 7.64798 10.8987C6.51894 10.9467 5.64433 11.9 5.69337 13.027C5.74242 14.154 6.69673 15.0286 7.82577 14.9796C8.95378 14.9306 9.82944 13.9773 9.78039 12.8503Z" fill="#133441"/>
<path d="M17.5458 13.0669C17.6173 14.7038 19.0028 15.9728 20.6417 15.9013C22.2796 15.8308 23.5506 14.4473 23.4791 12.8105C23.4086 11.1747 22.0231 9.90563 20.3842 9.97614C18.7453 10.0477 17.4753 11.4311 17.5458 13.0669Z" fill="white"/>
<path d="M21.9714 14.014C21.7885 14.2215 21.4994 14.2674 21.3267 14.1162C21.154 13.964 21.1632 13.6728 21.3461 13.4643C21.529 13.2569 21.8172 13.2109 21.9898 13.3632C22.1625 13.5144 22.1543 13.8066 21.9714 14.014ZM20.2876 12.6102C19.9289 12.9259 19.4242 12.9422 19.1606 12.6439C18.898 12.3465 18.9756 11.8489 19.3343 11.5322C19.6939 11.2155 20.1977 11.2001 20.4613 11.4975C20.7249 11.7948 20.6472 12.2934 20.2876 12.6102ZM22.5538 12.8503C22.5048 11.7233 21.5505 10.8497 20.4214 10.8987C19.2934 10.9467 18.4178 11.9 18.4668 13.027C18.5148 14.154 19.4702 15.0286 20.5992 14.9796C21.7272 14.9306 22.6029 13.9773 22.5538 12.8503Z" fill="#133441"/>
<path d="M18.3522 7.35332C18.2838 7.87442 19.1983 8.1789 20.2231 8.29231C21.1416 8.39449 22.0275 8.57534 22.238 7.90916C22.6722 6.54 18.5607 5.78595 18.3522 7.35332Z" fill="#133441"/>
<path d="M6.00914 7.89682C6.21553 8.563 7.10242 8.38829 8.02098 8.29326C9.04784 8.187 9.96436 7.88763 9.89897 7.36653C9.70177 5.79814 5.58511 6.5246 6.00914 7.89682Z" fill="#133441"/>
<path d="M23.7049 16.687C23.7049 17.0681 23.1277 17.3767 22.4145 17.3767C21.7023 17.3767 21.125 17.0681 21.125 16.687C21.125 16.3059 21.7023 15.9973 22.4145 15.9973C23.1277 15.9973 23.7049 16.3059 23.7049 16.687Z" fill="#A592FF"/>
<path d="M6.87192 16.687C6.87192 17.0681 6.29464 17.3767 5.58146 17.3767C4.8693 17.3767 4.29199 17.0681 4.29199 16.687C4.29199 16.3059 4.8693 15.9973 5.58146 15.9973C6.29464 15.9973 6.87192 16.3059 6.87192 16.687Z" fill="#A592FF"/>
</svg>
