<svg width="32" height="32" viewBox="0 0 32 32" fill="none" xmlns="http://www.w3.org/2000/svg">
<path d="M30.025 24.911L24.7675 15.1884C25.3039 13.9711 25.604 12.6257 25.604 11.2103C25.604 5.75519 21.1816 1.33325 15.7269 1.33325C10.2709 1.33325 5.84896 5.75564 5.84896 11.2103C5.84896 12.6599 6.16385 14.0353 6.72446 15.2751L1.44364 24.9065C1.27336 25.216 1.30166 25.5978 1.51459 25.8803C1.72796 26.162 2.08822 26.2945 2.43228 26.2137L6.94181 25.1792L8.48527 29.478C8.60566 29.8122 8.91067 30.044 9.26419 30.0701C9.28713 30.0719 9.30911 30.0728 9.33067 30.0728C9.49312 30.0727 9.65251 30.0286 9.79189 29.9452C9.93126 29.8617 10.0454 29.742 10.1222 29.5989L14.7179 21.0366C15.053 21.0706 15.3896 21.0875 15.7264 21.0874C16.0386 21.0874 16.3467 21.0712 16.6513 21.0425L21.3468 29.6056C21.4299 29.7574 21.5551 29.882 21.7073 29.9643C21.8595 30.0466 22.0323 30.0832 22.2048 30.0696C22.5574 30.0413 22.861 29.81 22.9805 29.4776L24.524 25.1787L29.0335 26.2132C29.3794 26.2967 29.7361 26.1624 29.9494 25.8817C30.1637 25.6014 30.1925 25.2214 30.025 24.911ZM9.49412 26.971L8.36388 23.8221C8.20935 23.394 7.76107 23.1447 7.31723 23.2502L3.98191 24.0152L7.78356 17.0813C9.03549 18.7726 10.8143 20.0483 12.8775 20.6691L9.49412 26.971ZM24.1484 23.2502C23.7028 23.1451 23.2563 23.3939 23.1018 23.822L21.9639 26.9938L18.5064 20.6893C20.6244 20.0689 22.4464 18.7595 23.7145 17.0189L27.5004 24.0188L24.1484 23.2502Z" fill="#B2C0DB"/>
<path d="M14.1318 15.7998C13.9184 15.7998 13.7618 15.7531 13.6618 15.6598C13.5684 15.5598 13.5218 15.4165 13.5218 15.2298C13.5218 15.1165 13.5518 15.0065 13.6118 14.8998C13.6718 14.7931 13.7584 14.6798 13.8718 14.5598L15.8818 12.4198C16.1884 12.0998 16.4084 11.8098 16.5418 11.5498C16.6751 11.2831 16.7418 11.0165 16.7418 10.7498C16.7418 10.0698 16.3318 9.7298 15.5118 9.7298C15.2851 9.7298 15.0584 9.76314 14.8318 9.8298C14.6051 9.8898 14.3751 9.99647 14.1418 10.1498C13.9951 10.2498 13.8584 10.2798 13.7318 10.2398C13.6051 10.1998 13.5084 10.1198 13.4418 9.9998C13.3751 9.87314 13.3518 9.7398 13.3718 9.5998C13.3984 9.4598 13.4851 9.3398 13.6318 9.2398C13.9184 9.04647 14.2384 8.8998 14.5918 8.7998C14.9518 8.6998 15.3118 8.6498 15.6718 8.6498C16.4251 8.6498 17.0018 8.8198 17.4018 9.1598C17.8084 9.4998 18.0118 9.98647 18.0118 10.6198C18.0118 11.0465 17.9084 11.4565 17.7018 11.8498C17.5018 12.2431 17.1851 12.6665 16.7518 13.1198L15.2018 14.7398H17.8118C18.1784 14.7398 18.3618 14.9131 18.3618 15.2598C18.3618 15.6198 18.1784 15.7998 17.8118 15.7998H14.1318Z" fill="white"/>
</svg>
