<svg width="32" height="32" viewBox="0 0 32 32" fill="none" xmlns="http://www.w3.org/2000/svg">
<path d="M30.025 24.911L24.7675 15.1884C25.3039 13.9711 25.604 12.6257 25.604 11.2103C25.604 5.75519 21.1816 1.33325 15.7269 1.33325C10.2709 1.33325 5.84896 5.75564 5.84896 11.2103C5.84896 12.6599 6.16385 14.0353 6.72446 15.2751L1.44364 24.9065C1.27336 25.216 1.30166 25.5978 1.51459 25.8803C1.72796 26.162 2.08822 26.2945 2.43228 26.2137L6.94181 25.1792L8.48527 29.478C8.60566 29.8122 8.91067 30.044 9.26419 30.0701C9.28713 30.0719 9.30911 30.0728 9.33067 30.0728C9.49312 30.0727 9.65251 30.0286 9.79189 29.9452C9.93126 29.8617 10.0454 29.742 10.1222 29.5989L14.7179 21.0366C15.053 21.0706 15.3896 21.0875 15.7264 21.0874C16.0386 21.0874 16.3467 21.0712 16.6513 21.0425L21.3468 29.6056C21.4299 29.7574 21.5551 29.882 21.7073 29.9643C21.8595 30.0466 22.0323 30.0832 22.2048 30.0696C22.5574 30.0413 22.861 29.81 22.9805 29.4776L24.524 25.1787L29.0335 26.2132C29.3794 26.2967 29.7361 26.1624 29.9494 25.8817C30.1637 25.6014 30.1925 25.2214 30.025 24.911ZM9.49412 26.971L8.36388 23.8221C8.20935 23.394 7.76107 23.1447 7.31723 23.2502L3.98191 24.0152L7.78356 17.0813C9.03549 18.7726 10.8143 20.0483 12.8775 20.6691L9.49412 26.971ZM24.1484 23.2502C23.7028 23.1451 23.2563 23.3939 23.1018 23.822L21.9639 26.9938L18.5064 20.6893C20.6244 20.0689 22.4464 18.7595 23.7145 17.0189L27.5004 24.0188L24.1484 23.2502Z" fill="#D79961"/>
<path d="M15.6618 15.8998C15.3018 15.8998 14.9284 15.8531 14.5418 15.7598C14.1551 15.6665 13.8184 15.5265 13.5318 15.3398C13.3651 15.2265 13.2651 15.0998 13.2318 14.9598C13.1984 14.8131 13.2151 14.6831 13.2818 14.5698C13.3484 14.4498 13.4484 14.3698 13.5818 14.3298C13.7218 14.2898 13.8784 14.3165 14.0518 14.4098C14.3251 14.5565 14.5884 14.6631 14.8418 14.7298C15.0951 14.7898 15.3551 14.8198 15.6218 14.8198C16.5218 14.8198 16.9718 14.4665 16.9718 13.7598C16.9718 13.4265 16.8584 13.1798 16.6318 13.0198C16.4118 12.8531 16.0884 12.7698 15.6618 12.7698H15.0218C14.8351 12.7698 14.6918 12.7231 14.5918 12.6298C14.4984 12.5365 14.4518 12.4065 14.4518 12.2398C14.4518 12.0731 14.4984 11.9431 14.5918 11.8498C14.6918 11.7565 14.8351 11.7098 15.0218 11.7098H15.5418C15.9151 11.7098 16.2118 11.6198 16.4318 11.4398C16.6518 11.2531 16.7618 10.9965 16.7618 10.6698C16.7618 10.3631 16.6584 10.1298 16.4518 9.9698C16.2518 9.8098 15.9584 9.7298 15.5718 9.7298C15.3251 9.7298 15.0918 9.7598 14.8718 9.8198C14.6584 9.87314 14.4218 9.97647 14.1618 10.1298C14.0084 10.2231 13.8684 10.2498 13.7418 10.2098C13.6151 10.1631 13.5151 10.0831 13.4418 9.9698C13.3751 9.8498 13.3551 9.7198 13.3818 9.5798C13.4084 9.4398 13.5018 9.3198 13.6618 9.2198C14.2484 8.8398 14.9218 8.6498 15.6818 8.6498C16.4151 8.6498 16.9851 8.81647 17.3918 9.1498C17.7984 9.47647 18.0018 9.93314 18.0018 10.5198C18.0018 10.8998 17.9051 11.2331 17.7118 11.5198C17.5184 11.8065 17.2551 12.0131 16.9218 12.1398C17.3284 12.2531 17.6451 12.4631 17.8718 12.7698C18.0984 13.0698 18.2118 13.4365 18.2118 13.8698C18.2118 14.4965 17.9851 14.9931 17.5318 15.3598C17.0784 15.7198 16.4551 15.8998 15.6618 15.8998Z" fill="white"/>
</svg>
